<?xml version="1.0" encoding="UTF-8"?>
<!DOCTYPE svg PUBLIC "-//W3C//DTD SVG 1.1//EN" "http://www.w3.org/Graphics/SVG/1.1/DTD/svg11.dtd">
<svg xmlns="http://www.w3.org/2000/svg" version="1.1" width="74px" height="75px" style="shape-rendering:geometricPrecision; text-rendering:geometricPrecision; image-rendering:optimizeQuality; fill-rule:evenodd; clip-rule:evenodd" xmlns:xlink="http://www.w3.org/1999/xlink">
<g><path style="opacity:1" fill="#f9f9f9" d="M -0.5,-0.5 C 24.1667,-0.5 48.8333,-0.5 73.5,-0.5C 73.5,24.5 73.5,49.5 73.5,74.5C 70.1667,74.5 66.8333,74.5 63.5,74.5C 66.0798,69.0926 68.4132,63.5926 70.5,58C 69.8333,57.3333 69.1667,56.6667 68.5,56C 69.0104,54.1739 69.8438,54.0072 71,55.5C 71.6667,53.8333 71.6667,52.1667 71,50.5C 70.6667,51.5 70.3333,52.5 70,53.5C 69.0805,53.0698 68.2472,52.7365 67.5,52.5C 68.0149,50.7749 68.6816,49.1083 69.5,47.5C 70.9038,48.9989 71.5704,48.6656 71.5,46.5C 71.441,44.2335 70.6077,43.5668 69,44.5C 67.4509,39.6362 65.2842,35.3029 62.5,31.5C 56.7781,15.4664 45.4447,8.96636 28.5,12C 20.1621,15.8329 14.4954,21.9996 11.5,30.5C 10.5655,31.5676 10.2322,32.901 10.5,34.5C 6.89103,35.6182 4.89103,38.1182 4.5,42C 6.04826,45.4751 5.3816,48.4751 2.5,51C 4.99134,51.6259 4.99134,52.4593 2.5,53.5C 3.23507,56.9076 4.56841,60.4076 6.5,64C 6.16667,64.3333 5.83333,64.6667 5.5,65C 7.3937,66.0793 7.72703,67.4126 6.5,69C 8.29684,70.5305 9.63017,72.3639 10.5,74.5C 6.83333,74.5 3.16667,74.5 -0.5,74.5C -0.5,49.5 -0.5,24.5 -0.5,-0.5 Z"/></g>
<g><path style="opacity:1" fill="#a2d2c7" d="M 62.5,31.5 C 62.5,34.1667 62.5,36.8333 62.5,39.5C 58.395,54.7316 48.395,61.8983 32.5,61C 17.255,56.7168 10.255,46.5501 11.5,30.5C 14.4954,21.9996 20.1621,15.8329 28.5,12C 45.4447,8.96636 56.7781,15.4664 62.5,31.5 Z"/></g>
<g><path style="opacity:1" fill="#658896" d="M 31.5,22.5 C 31.5,23.5 31.5,24.5 31.5,25.5C 30.5,25.5 29.5,25.5 28.5,25.5C 28.1457,22.5065 29.1457,21.5065 31.5,22.5 Z"/></g>
<g><path style="opacity:1" fill="#527386" d="M 41.5,23.5 C 42.7759,24.3864 42.7759,25.3864 41.5,26.5C 40.913,25.7666 40.913,24.7666 41.5,23.5 Z"/></g>
<g><path style="opacity:1" fill="#43607a" d="M 31.5,25.5 C 31.5,24.5 31.5,23.5 31.5,22.5C 32.404,21.791 32.7373,20.791 32.5,19.5C 38.5,18.1667 40.8333,20.5 39.5,26.5C 37.9397,26.5191 36.4397,26.8524 35,27.5C 33.9231,26.5705 32.7564,25.9038 31.5,25.5 Z"/></g>
<g><path style="opacity:1" fill="#547588" d="M 48.5,39.5 C 48.5,39.1667 48.5,38.8333 48.5,38.5C 50.0024,36.1707 49.3357,34.8373 46.5,34.5C 46.189,33.5222 45.5223,32.8555 44.5,32.5C 43.8243,33.6016 43.1577,34.6016 42.5,35.5C 43.0838,32.715 42.0838,31.0483 39.5,30.5C 39.1667,30.5 38.8333,30.5 38.5,30.5C 38.8333,29.8333 39.1667,29.1667 39.5,28.5C 41.2292,29.1175 42.7292,30.1175 44,31.5C 44.3034,29.1116 45.1367,26.9449 46.5,25C 52.2292,25.7022 52.8959,28.2022 48.5,32.5C 52.4657,34.9068 52.4657,37.2401 48.5,39.5 Z"/></g>
<g><path style="opacity:1" fill="#92beb9" d="M 46.5,26.5 C 47.5,26.5 48.5,26.5 49.5,26.5C 49.7778,28.3464 49.1112,29.6798 47.5,30.5C 46.5713,29.3112 46.238,27.9778 46.5,26.5 Z"/></g>
<g><path style="opacity:1" fill="#7ca4a7" d="M 39.5,28.5 C 39.1667,29.1667 38.8333,29.8333 38.5,30.5C 38.5,31.8333 38.5,33.1667 38.5,34.5C 36.5853,34.7845 34.9187,34.4511 33.5,33.5C 34.8333,33.5 36.1667,33.5 37.5,33.5C 37.0773,31.2188 37.744,29.5521 39.5,28.5 Z"/></g>
<g><path style="opacity:1" fill="#f9f9f3" d="M 62.5,31.5 C 65.2842,35.3029 67.4509,39.6362 69,44.5C 70.6077,43.5668 71.441,44.2335 71.5,46.5C 71.5704,48.6656 70.9038,48.9989 69.5,47.5C 68.6816,49.1083 68.0149,50.7749 67.5,52.5C 68.2472,52.7365 69.0805,53.0698 70,53.5C 70.3333,52.5 70.6667,51.5 71,50.5C 71.6667,52.1667 71.6667,53.8333 71,55.5C 69.8438,54.0072 69.0104,54.1739 68.5,56C 69.1667,56.6667 69.8333,57.3333 70.5,58C 68.4132,63.5926 66.0798,69.0926 63.5,74.5C 61.5,74.5 59.5,74.5 57.5,74.5C 57.5,73.5 57.5,72.5 57.5,71.5C 58.5,71.5 59.5,71.5 60.5,71.5C 61.3118,66.639 63.3118,61.8057 66.5,57C 65.8834,55.1587 65.8834,53.1587 66.5,51C 65.7679,48.208 64.7679,45.5413 63.5,43C 63.8333,42.6667 64.1667,42.3333 64.5,42C 63.6195,41.2917 62.9528,40.4584 62.5,39.5C 62.5,36.8333 62.5,34.1667 62.5,31.5 Z"/></g>
<g><path style="opacity:1" fill="#95c2bc" d="M 32.5,33.5 C 32.8333,35.5 33.1667,37.5 33.5,39.5C 32.1667,39.5 30.8333,39.5 29.5,39.5C 29.5,38.5 29.5,37.5 29.5,36.5C 29.5792,35.0695 29.2458,33.7362 28.5,32.5C 29,32.1667 29.5,31.8333 30,31.5C 31.0111,32.0556 31.8444,32.7222 32.5,33.5 Z"/></g>
<g><path style="opacity:1" fill="#97c3bd" d="M 39.5,30.5 C 42.0838,31.0483 43.0838,32.715 42.5,35.5C 39.9162,34.9517 38.9162,33.285 39.5,30.5 Z"/></g>
<g><path style="opacity:1" fill="#f9f9f3" d="M 10.5,34.5 C 10.7683,37.1194 10.435,39.6194 9.5,42C 12.2926,44.7344 11.9593,45.7344 8.5,45C 9.57622,46.7261 9.74289,48.5594 9,50.5C 7.11869,47.6491 6.28536,47.9825 6.5,51.5C 7.7312,55.6313 8.7312,59.798 9.5,64C 9.16667,64.3333 8.83333,64.6667 8.5,65C 9.66667,65.5 10.5,66.3333 11,67.5C 11.414,67.0426 11.914,66.7093 12.5,66.5C 13.0959,67.7161 13.2626,69.0494 13,70.5C 15.0153,71.6966 16.8487,73.0299 18.5,74.5C 15.8333,74.5 13.1667,74.5 10.5,74.5C 9.63017,72.3639 8.29684,70.5305 6.5,69C 7.72703,67.4126 7.3937,66.0793 5.5,65C 5.83333,64.6667 6.16667,64.3333 6.5,64C 4.56841,60.4076 3.23507,56.9076 2.5,53.5C 4.99134,52.4593 4.99134,51.6259 2.5,51C 5.3816,48.4751 6.04826,45.4751 4.5,42C 4.89103,38.1182 6.89103,35.6182 10.5,34.5 Z"/></g>
<g><path style="opacity:1" fill="#3f5c77" d="M 38.5,30.5 C 38.8333,30.5 39.1667,30.5 39.5,30.5C 38.9162,33.285 39.9162,34.9517 42.5,35.5C 43.1577,34.6016 43.8243,33.6016 44.5,32.5C 45.5223,32.8555 46.189,33.5222 46.5,34.5C 43.7699,37.0507 44.4366,38.384 48.5,38.5C 48.5,38.8333 48.5,39.1667 48.5,39.5C 48.1667,39.5 47.8333,39.5 47.5,39.5C 46.8333,39.8333 46.1667,40.1667 45.5,40.5C 38.8333,40.5 32.1667,40.5 25.5,40.5C 24.475,40.1034 24.3083,39.4368 25,38.5C 26.1827,39.731 27.3493,39.731 28.5,38.5C 27.019,37.056 27.3523,36.3894 29.5,36.5C 29.5,37.5 29.5,38.5 29.5,39.5C 30.8333,39.5 32.1667,39.5 33.5,39.5C 33.1667,37.5 32.8333,35.5 32.5,33.5C 32.8333,33.5 33.1667,33.5 33.5,33.5C 34.9187,34.4511 36.5853,34.7845 38.5,34.5C 38.5,33.1667 38.5,31.8333 38.5,30.5 Z"/></g>
<g><path style="opacity:1" fill="#92beb9" d="M 46.5,34.5 C 49.3357,34.8373 50.0024,36.1707 48.5,38.5C 44.4366,38.384 43.7699,37.0507 46.5,34.5 Z"/></g>
<g><path style="opacity:1" fill="#7aa2a5" d="M 34.5,36.5 C 35.9464,35.3871 37.6131,35.2204 39.5,36C 40.9733,36.7096 41.6399,37.8762 41.5,39.5C 39.5,39.5 37.5,39.5 35.5,39.5C 35.7373,38.209 35.404,37.209 34.5,36.5 Z"/></g>
<g><path style="opacity:1" fill="#f1f2f2" d="M 11.5,30.5 C 10.255,46.5501 17.255,56.7168 32.5,61C 48.395,61.8983 58.395,54.7316 62.5,39.5C 62.9528,40.4584 63.6195,41.2917 64.5,42C 64.1667,42.3333 63.8333,42.6667 63.5,43C 64.7679,45.5413 65.7679,48.208 66.5,51C 65.8834,53.1587 65.8834,55.1587 66.5,57C 63.3118,61.8057 61.3118,66.639 60.5,71.5C 59.5,71.5 58.5,71.5 57.5,71.5C 57.5,72.5 57.5,73.5 57.5,74.5C 44.5,74.5 31.5,74.5 18.5,74.5C 16.8487,73.0299 15.0153,71.6966 13,70.5C 13.2626,69.0494 13.0959,67.7161 12.5,66.5C 11.914,66.7093 11.414,67.0426 11,67.5C 10.5,66.3333 9.66667,65.5 8.5,65C 8.83333,64.6667 9.16667,64.3333 9.5,64C 8.7312,59.798 7.7312,55.6313 6.5,51.5C 6.28536,47.9825 7.11869,47.6491 9,50.5C 9.74289,48.5594 9.57622,46.7261 8.5,45C 11.9593,45.7344 12.2926,44.7344 9.5,42C 10.435,39.6194 10.7683,37.1194 10.5,34.5C 10.2322,32.901 10.5655,31.5676 11.5,30.5 Z"/></g>
<g><path style="opacity:1" fill="#4e6d81" d="M 33.5,33.5 C 33.1667,33.5 32.8333,33.5 32.5,33.5C 31.8444,32.7222 31.0111,32.0556 30,31.5C 29.5,31.8333 29,32.1667 28.5,32.5C 29.2458,33.7362 29.5792,35.0695 29.5,36.5C 27.3523,36.3894 27.019,37.056 28.5,38.5C 27.3493,39.731 26.1827,39.731 25,38.5C 24.3083,39.4368 24.475,40.1034 25.5,40.5C 26.2625,41.2679 27.2625,41.7679 28.5,42C 27.2625,42.2321 26.2625,42.7321 25.5,43.5C 26.6926,48.3581 29.8593,50.3581 35,49.5C 39.6289,50.2726 42.7956,48.6059 44.5,44.5C 45.4345,43.4324 45.7678,42.099 45.5,40.5C 46.1667,40.1667 46.8333,39.8333 47.5,39.5C 47.6602,41.1992 47.4935,42.8659 47,44.5C 44.5393,47.434 42.3726,50.434 40.5,53.5C 37.1667,53.5 33.8333,53.5 30.5,53.5C 30.5,52.5 30.5,51.5 30.5,50.5C 26.9567,50.128 24.79,48.128 24,44.5C 23.3333,41.5 23.3333,38.5 24,35.5C 25.0113,34.6634 26.1779,34.33 27.5,34.5C 27.0101,32.0516 27.8434,30.385 30,29.5C 32.0736,30.0717 33.2402,31.405 33.5,33.5 Z"/></g>
<g><path style="opacity:1" fill="#a0d1c6" d="M 44.5,44.5 C 42.7956,48.6059 39.6289,50.2726 35,49.5C 29.8593,50.3581 26.6926,48.3581 25.5,43.5C 31.4791,42.3549 37.8124,41.6883 44.5,41.5C 44.5,42.5 44.5,43.5 44.5,44.5 Z"/></g>
<g><path style="opacity:1" fill="#83aaab" d="M 25.5,40.5 C 32.1667,40.5 38.8333,40.5 45.5,40.5C 45.7678,42.099 45.4345,43.4324 44.5,44.5C 44.5,43.5 44.5,42.5 44.5,41.5C 37.8124,41.6883 31.4791,42.3549 25.5,43.5C 26.2625,42.7321 27.2625,42.2321 28.5,42C 27.2625,41.7679 26.2625,41.2679 25.5,40.5 Z"/></g>
<g><path style="opacity:1" fill="#678a96" d="M 31.5,50.5 C 33.924,50.1924 36.2573,50.5258 38.5,51.5C 37.3333,51.8333 36.1667,52.1667 35,52.5C 33.3189,52.3917 32.1522,51.7251 31.5,50.5 Z"/></g>
</svg>
