<?xml version="1.0" encoding="UTF-8"?>
<!DOCTYPE svg PUBLIC "-//W3C//DTD SVG 1.1//EN" "http://www.w3.org/Graphics/SVG/1.1/DTD/svg11.dtd">
<svg xmlns="http://www.w3.org/2000/svg" version="1.1" width="94px" height="82px" style="shape-rendering:geometricPrecision; text-rendering:geometricPrecision; image-rendering:optimizeQuality; fill-rule:evenodd; clip-rule:evenodd" xmlns:xlink="http://www.w3.org/1999/xlink">
<g><path style="opacity:1" fill="#f9f9f9" d="M -0.5,-0.5 C 30.8333,-0.5 62.1667,-0.5 93.5,-0.5C 93.5,26.8333 93.5,54.1667 93.5,81.5C 85.8333,81.5 78.1667,81.5 70.5,81.5C 70.6495,80.448 70.4828,79.448 70,78.5C 69.3457,79.6956 68.8457,79.6956 68.5,78.5C 70.1667,76.8333 71.8333,75.1667 73.5,73.5C 74.086,73.7093 74.586,74.0426 75,74.5C 75.7203,72.8876 75.5536,71.3876 74.5,70C 77.8982,67.8288 78.5649,65.3288 76.5,62.5C 77.1667,62.1667 77.8333,61.8333 78.5,61.5C 78.2747,58.0966 77.9414,54.43 77.5,50.5C 76.448,50.6495 75.448,50.4828 74.5,50C 75.9964,47.5528 75.6631,46.7194 73.5,47.5C 74.3733,29.534 65.8733,19.2007 48,16.5C 36.5951,17.434 28.7618,23.1007 24.5,33.5C 23.8826,33.6107 23.3826,33.944 23,34.5C 22.5017,37.8168 22.335,41.1501 22.5,44.5C 21.71,43.3915 21.21,42.0581 21,40.5C 20.2261,42.9393 18.7261,44.7727 16.5,46C 16.9574,46.414 17.2907,46.914 17.5,47.5C 16.009,49.8069 15.009,52.3069 14.5,55C 15.624,55.2492 16.624,55.7492 17.5,56.5C 14.9991,59.1014 14.9991,61.6014 17.5,64C 15.7174,65.0665 15.2174,66.5665 16,68.5C 16.3333,67.8333 16.6667,67.1667 17,66.5C 17.3333,68.1667 17.6667,69.8333 18,71.5C 20.4908,74.4733 22.3242,77.8067 23.5,81.5C 15.5,81.5 7.5,81.5 -0.5,81.5C -0.5,54.1667 -0.5,26.8333 -0.5,-0.5 Z"/></g>
<g><path style="opacity:1" fill="#a2d2c7" d="M 73.5,47.5 C 67.6474,63.2665 56.3141,69.4332 39.5,66C 26.1271,59.0535 21.1271,48.2202 24.5,33.5C 28.7618,23.1007 36.5951,17.434 48,16.5C 65.8733,19.2007 74.3733,29.534 73.5,47.5 Z"/></g>
<g><path style="opacity:1" fill="#43607b" d="M 47.5,25.5 C 49.337,25.6395 49.6704,26.3061 48.5,27.5C 47.7025,27.0431 47.3691,26.3764 47.5,25.5 Z"/></g>
<g><path style="opacity:1" fill="#43607b" d="M 34.5,31.5 C 36.337,31.6395 36.6704,32.3061 35.5,33.5C 34.7025,33.0431 34.3691,32.3764 34.5,31.5 Z"/></g>
<g><path style="opacity:1" fill="#43607b" d="M 60.5,31.5 C 62.337,31.6395 62.6704,32.3061 61.5,33.5C 60.7025,33.0431 60.3691,32.3764 60.5,31.5 Z"/></g>
<g><path style="opacity:1" fill="#698e97" d="M 55.5,36.5 C 56.5676,35.5655 57.901,35.2322 59.5,35.5C 59.2627,36.791 59.596,37.791 60.5,38.5C 60.7373,39.791 60.404,40.791 59.5,41.5C 59.6716,40.5084 59.3382,39.8417 58.5,39.5C 58.5,38.5 58.5,37.5 58.5,36.5C 57.5,36.5 56.5,36.5 55.5,36.5 Z"/></g>
<g><path style="opacity:1" fill="#9dcdc3" d="M 55.5,36.5 C 56.5,36.5 57.5,36.5 58.5,36.5C 58.5,37.5 58.5,38.5 58.5,39.5C 57.6074,45.7934 53.9407,48.4601 47.5,47.5C 46.3911,40.9569 49.0577,37.2903 55.5,36.5 Z"/></g>
<g><path style="opacity:1" fill="#f9f9f3" d="M 22.5,44.5 C 21.5868,46.0861 21.5868,47.5861 22.5,49C 21.6872,50.3139 20.6872,51.4805 19.5,52.5C 19.9578,56.2512 19.9578,60.2512 19.5,64.5C 20,65.5 20.5,66.5 21,67.5C 21.6543,66.3044 22.1543,66.3044 22.5,67.5C 21.9984,68.7164 21.6651,69.8831 21.5,71C 25.5969,72.3236 26.2636,74.4903 23.5,77.5C 25.2651,79.0528 27.0985,79.3861 29,78.5C 30.7947,79.7195 30.6281,80.7195 28.5,81.5C 26.8333,81.5 25.1667,81.5 23.5,81.5C 22.3242,77.8067 20.4908,74.4733 18,71.5C 17.6667,69.8333 17.3333,68.1667 17,66.5C 16.6667,67.1667 16.3333,67.8333 16,68.5C 15.2174,66.5665 15.7174,65.0665 17.5,64C 14.9991,61.6014 14.9991,59.1014 17.5,56.5C 16.624,55.7492 15.624,55.2492 14.5,55C 15.009,52.3069 16.009,49.8069 17.5,47.5C 17.2907,46.914 16.9574,46.414 16.5,46C 18.7261,44.7727 20.2261,42.9393 21,40.5C 21.21,42.0581 21.71,43.3915 22.5,44.5 Z"/></g>
<g><path style="opacity:1" fill="#4f6f83" d="M 60.5,38.5 C 59.596,37.791 59.2627,36.791 59.5,35.5C 57.901,35.2322 56.5676,35.5655 55.5,36.5C 49.0577,37.2903 46.3911,40.9569 47.5,47.5C 53.9407,48.4601 57.6074,45.7934 58.5,39.5C 59.3382,39.8417 59.6716,40.5084 59.5,41.5C 59.0842,44.3595 60.0842,46.5262 62.5,48C 62.2409,49.2613 61.5742,50.2613 60.5,51C 61.6091,52.813 60.9424,53.6463 58.5,53.5C 56.6365,52.2072 54.6365,52.2072 52.5,53.5C 48.8389,60.3868 46.1722,60.0535 44.5,52.5C 41.7508,52.2739 39.0841,52.6072 36.5,53.5C 33.1646,49.363 33.8312,46.1964 38.5,44C 37.1336,41.0027 36.467,37.836 36.5,34.5C 38.288,34.7852 39.9547,34.4519 41.5,33.5C 43.8907,32.0177 46.2241,30.3511 48.5,28.5C 49.9512,30.5589 51.9512,31.5589 54.5,31.5C 54.5,32.5 54.5,33.5 54.5,34.5C 56.5,34.5 58.5,34.5 60.5,34.5C 60.5,35.8333 60.5,37.1667 60.5,38.5 Z"/></g>
<g><path style="opacity:1" fill="#9ac9c0" d="M 45.5,36.5 C 45.7724,39.9917 46.1058,43.4917 46.5,47C 43.6917,47.9201 41.5251,47.0867 40,44.5C 38.7475,41.9865 38.2475,39.3198 38.5,36.5C 40.8333,36.5 43.1667,36.5 45.5,36.5 Z"/></g>
<g><path style="opacity:1" fill="#96c5bd" d="M 45.5,36.5 C 47.6496,29.9751 49.1496,29.9751 50,36.5C 48.5861,37.4132 47.0861,37.4132 45.5,36.5 Z"/></g>
<g><path style="opacity:1" fill="#f1f2f2" d="M 24.5,33.5 C 21.1271,48.2202 26.1271,59.0535 39.5,66C 56.3141,69.4332 67.6474,63.2665 73.5,47.5C 75.6631,46.7194 75.9964,47.5528 74.5,50C 75.448,50.4828 76.448,50.6495 77.5,50.5C 77.9414,54.43 78.2747,58.0966 78.5,61.5C 77.8333,61.8333 77.1667,62.1667 76.5,62.5C 78.5649,65.3288 77.8982,67.8288 74.5,70C 75.5536,71.3876 75.7203,72.8876 75,74.5C 74.586,74.0426 74.086,73.7093 73.5,73.5C 71.8333,75.1667 70.1667,76.8333 68.5,78.5C 68.8457,79.6956 69.3457,79.6956 70,78.5C 70.4828,79.448 70.6495,80.448 70.5,81.5C 56.5,81.5 42.5,81.5 28.5,81.5C 30.6281,80.7195 30.7947,79.7195 29,78.5C 27.0985,79.3861 25.2651,79.0528 23.5,77.5C 26.2636,74.4903 25.5969,72.3236 21.5,71C 21.6651,69.8831 21.9984,68.7164 22.5,67.5C 22.1543,66.3044 21.6543,66.3044 21,67.5C 20.5,66.5 20,65.5 19.5,64.5C 19.9578,60.2512 19.9578,56.2512 19.5,52.5C 20.6872,51.4805 21.6872,50.3139 22.5,49C 21.5868,47.5861 21.5868,46.0861 22.5,44.5C 22.335,41.1501 22.5017,37.8168 23,34.5C 23.3826,33.944 23.8826,33.6107 24.5,33.5 Z"/></g>
<g><path style="opacity:1" fill="#9ac7bf" d="M 37.5,46.5 C 40.243,47.3882 42.9096,48.5549 45.5,50C 42.0116,52.2092 39.0116,51.7092 36.5,48.5C 36.8627,47.8165 37.1961,47.1499 37.5,46.5 Z"/></g>
<g><path style="opacity:1" fill="#97c5bd" d="M 56.5,46.5 C 59.694,46.1756 60.694,47.3422 59.5,50C 56.7614,51.8928 54.0947,51.8928 51.5,50C 53.4308,49.0978 55.0975,47.9312 56.5,46.5 Z"/></g>
<g><path style="opacity:1" fill="#43607b" d="M 30.5,47.5 C 32.337,47.6395 32.6704,48.3061 31.5,49.5C 30.7025,49.0431 30.3691,48.3764 30.5,47.5 Z"/></g>
<g><path style="opacity:1" fill="#43607b" d="M 64.5,47.5 C 66.337,47.6395 66.6704,48.3061 65.5,49.5C 64.7025,49.0431 64.3691,48.3764 64.5,47.5 Z"/></g>
<g><path style="opacity:1" fill="#94c1ba" d="M 47.5,49.5 C 52.4511,51.0885 52.7844,53.4219 48.5,56.5C 44.9667,54.5798 44.6334,52.2465 47.5,49.5 Z"/></g>
<g><path style="opacity:1" fill="#608692" d="M 38.5,53.5 C 40.288,53.2148 41.9547,53.5481 43.5,54.5C 42.6667,54.8333 41.8333,55.1667 41,55.5C 39.6244,55.3158 38.7911,54.6491 38.5,53.5 Z"/></g>
<g><path style="opacity:1" fill="#5d818e" d="M 58.5,53.5 C 57.2486,55.561 55.5819,55.8943 53.5,54.5C 55.0453,53.5481 56.712,53.2148 58.5,53.5 Z"/></g>
</svg>
